<svg width="231" height="385" viewBox="0 0 231 385" fill="none" xmlns="http://www.w3.org/2000/svg">
<path d="M0 164.5C0 100.711 51.7111 49 115.5 49C179.289 49 231 100.711 231 164.5V279H0V164.5Z" fill="#319FA9"/>
<path d="M116 0L125.939 10.9084L140 6.43078L143.153 20.8471L157.569 24L153.092 38.0613L164 48L153.092 57.9387L157.569 72L143.153 75.1529L140 89.5692L125.939 85.0916L116 96L106.061 85.0916L92 89.5692L88.8471 75.1529L74.4308 72L78.9084 57.9387L68 48L78.9084 38.0613L74.4308 24L88.8471 20.8471L92 6.43078L106.061 10.9084L116 0Z" fill="#F8A11C"/>
<path d="M22 372.5C22 320.861 63.8614 279 115.5 279C167.139 279 209 320.861 209 372.5V385H22V372.5Z" fill="#FFA384"/>
</svg>
