<svg width="529" height="522" fill="none" xmlns="http://www.w3.org/2000/svg">
  <path d="M86.141 194.204C86.141 86.948 173.09 0 280.345 0c107.256 0 194.204 86.948 194.204 194.204v327.282H86.141V194.204Z" fill="#319FA9"/>
  <path d="m86.425 315.32 17.895 19.641 25.318-8.062 5.677 25.957 25.957 5.677-8.062 25.318 19.641 17.895-19.641 17.895 8.062 25.318-25.957 5.677-5.677 25.957-25.318-8.063-17.894 19.641L68.53 468.53l-25.318 8.063-5.677-25.957-25.957-5.677 8.062-25.318L0 401.746l19.641-17.895-8.062-25.318 25.957-5.677 5.677-25.957 25.318 8.062 17.894-19.641Z" fill="#F8A11C"/>
  <circle cx="442.575" cy="114.927" r="86.425" fill="#FFA384"/>
</svg>
