<svg width="529" height="522" viewBox="0 0 529 522" fill="none" xmlns="http://www.w3.org/2000/svg">
<path d="M86.1412 194.204C86.1412 86.9479 173.089 0 280.345 0C387.601 0 474.549 86.948 474.549 194.204V521.486H86.1412V194.204Z" fill="#319FA9"/>
<path d="M86.4255 315.32L104.32 334.961L129.638 326.899L135.315 352.856L161.272 358.533L153.21 383.851L172.851 401.746L153.21 419.641L161.272 444.959L135.315 450.636L129.638 476.593L104.32 468.53L86.4255 488.171L68.5307 468.53L43.2128 476.593L37.5359 450.636L11.5788 444.959L19.641 419.641L0 401.746L19.641 383.851L11.5788 358.533L37.5359 352.856L43.2128 326.899L68.5307 334.961L86.4255 315.32Z" fill="#F8A11C"/>
<circle cx="442.575" cy="114.927" r="86.4255" fill="#FFA384"/>
</svg>
