<svg width="44" height="44" viewBox="0 0 44 44" fill="none" xmlns="http://www.w3.org/2000/svg">
<path d="M36.6666 7.33337H7.33329C5.31663 7.33337 3.68496 8.98337 3.68496 11L3.66663 33C3.66663 35.0167 5.31663 36.6667 7.33329 36.6667H36.6666C38.6833 36.6667 40.3333 35.0167 40.3333 33V11C40.3333 8.98337 38.6833 7.33337 36.6666 7.33337ZM35.9333 15.125L22.9716 23.2284C22.385 23.595 21.615 23.595 21.0283 23.2284L8.06663 15.125C7.88279 15.0218 7.72181 14.8824 7.59342 14.7152C7.46503 14.548 7.37191 14.3565 7.31968 14.1522C7.26745 13.948 7.25721 13.7353 7.28958 13.5269C7.32194 13.3186 7.39624 13.119 7.50798 12.9403C7.61971 12.7615 7.76655 12.6072 7.93962 12.4869C8.11269 12.3665 8.30839 12.2825 8.51487 12.2399C8.72135 12.1974 8.93431 12.1971 9.14088 12.2393C9.34744 12.2814 9.54331 12.365 9.71663 12.485L22 20.1667L34.2833 12.485C34.4566 12.365 34.6525 12.2814 34.859 12.2393C35.0656 12.1971 35.2786 12.1974 35.4851 12.2399C35.6915 12.2825 35.8872 12.3665 36.0603 12.4869C36.2334 12.6072 36.3802 12.7615 36.4919 12.9403C36.6037 13.119 36.678 13.3186 36.7103 13.5269C36.7427 13.7353 36.7325 13.948 36.6802 14.1522C36.628 14.3565 36.5349 14.548 36.4065 14.7152C36.2781 14.8824 36.1171 15.0218 35.9333 15.125Z" fill="white"/>
</svg>
