<svg width="500" height="335" fill="none" xmlns="http://www.w3.org/2000/svg">
  <path d="m85 0 17.6 19.317 24.9-7.93 5.583 25.53 25.529 5.583-7.929 24.9L170 85l-19.317 17.6 7.929 24.9-25.529 5.583-5.583 25.529-24.9-7.929L85 170l-17.6-19.317-24.9 7.929-5.583-25.529-25.53-5.583 7.93-24.9L0 85l19.317-17.6-7.93-24.9 25.53-5.583 5.583-25.53 24.9 7.93L85 0Z" fill="#F8A11C"/>
  <circle cx="420" cy="85" r="80" fill="#FFA384"/>
  <path d="M170 250c0-46.944 38.056-85 85-85s85 38.056 85 85v85H170v-85Z" fill="#319FA9"/>
</svg>
