<svg width="44" height="44" viewBox="0 0 44 44" fill="none" xmlns="http://www.w3.org/2000/svg">
<path fill-rule="evenodd" clip-rule="evenodd" d="M22 2.74999C17.4299 2.75061 13.0091 4.37714 9.52835 7.33863C6.04762 10.3001 3.73405 14.4034 3.00151 18.9144C2.26897 23.4254 3.16523 28.0499 5.52998 31.9607C7.89472 35.8714 11.5737 38.8133 15.9088 40.26C16.8713 40.4387 17.2838 39.8475 17.2838 39.3387V36.0662C11.935 37.2212 10.8075 33.4812 10.8075 33.4812C10.4314 32.3026 9.63975 31.3009 8.58001 30.6625C6.83376 29.48 8.71751 29.4937 8.71751 29.4937C9.32747 29.5799 9.90967 29.8043 10.4196 30.1499C10.9296 30.4954 11.3539 30.9529 11.66 31.4875C12.1926 32.4428 13.0828 33.1474 14.1348 33.4465C15.1868 33.7456 16.3145 33.6147 17.27 33.0825C17.3476 32.1069 17.7778 31.1929 18.48 30.5112C14.2175 30.0162 9.72126 28.3662 9.72126 20.9962C9.69009 19.0821 10.3994 17.2299 11.7013 15.8262C11.112 14.1683 11.1809 12.3475 11.8938 10.7387C11.8938 10.7387 13.5025 10.2162 17.1875 12.705C20.3383 11.8455 23.6617 11.8455 26.8125 12.705C30.4838 10.2162 32.0925 10.7387 32.0925 10.7387C32.8054 12.3475 32.8743 14.1683 32.285 15.8262C33.5868 17.2299 34.2962 19.0821 34.265 20.9962C34.265 28.3937 29.7688 30.0162 25.4788 30.4975C25.9383 30.9633 26.2927 31.5222 26.518 32.1365C26.7433 32.7508 26.8344 33.4063 26.785 34.0587V39.3387C26.785 39.9712 27.1288 40.4525 28.16 40.26C32.5008 38.8115 36.1836 35.8639 38.5479 31.946C40.9123 28.0281 41.8036 23.396 41.0621 18.8804C40.3205 14.3648 37.9946 10.261 34.5013 7.30505C31.0081 4.34906 26.5761 2.73418 22 2.74999Z" fill="white"/>
</svg>
