<svg width="44" height="44" viewBox="0 0 44 44" fill="none" xmlns="http://www.w3.org/2000/svg">
<path d="M21.9954 15.8862C18.6289 15.8862 15.8817 18.6335 15.8817 22C15.8817 25.3664 18.6289 28.1137 21.9954 28.1137C25.3618 28.1137 28.1091 25.3664 28.1091 22C28.1091 18.6335 25.3618 15.8862 21.9954 15.8862ZM40.3319 22C40.3319 19.4682 40.3549 16.9595 40.2127 14.4323C40.0705 11.497 39.4009 8.89194 37.2544 6.74549C35.1034 4.59445 32.5029 3.92942 29.5676 3.78724C27.0359 3.64506 24.5271 3.66799 22 3.66799C19.4682 3.66799 16.9595 3.64506 14.4323 3.78724C11.497 3.92942 8.89194 4.59904 6.74549 6.74549C4.59445 8.89652 3.92942 11.497 3.78724 14.4323C3.64506 16.9641 3.66799 19.4728 3.66799 22C3.66799 24.5271 3.64506 27.0404 3.78724 29.5676C3.92942 32.5029 4.59904 35.108 6.74549 37.2544C8.89652 39.4055 11.497 40.0705 14.4323 40.2127C16.9641 40.3549 19.4728 40.3319 22 40.3319C24.5317 40.3319 27.0404 40.3549 29.5676 40.2127C32.5029 40.0705 35.108 39.4009 37.2544 37.2544C39.4055 35.1034 40.0705 32.5029 40.2127 29.5676C40.3594 27.0404 40.3319 24.5317 40.3319 22ZM21.9954 31.4067C16.7898 31.4067 12.5886 27.2056 12.5886 22C12.5886 16.7944 16.7898 12.5932 21.9954 12.5932C27.201 12.5932 31.4021 16.7944 31.4021 22C31.4021 27.2056 27.201 31.4067 21.9954 31.4067ZM31.7874 14.4048C30.572 14.4048 29.5905 13.4233 29.5905 12.2079C29.5905 10.9925 30.572 10.011 31.7874 10.011C33.0028 10.011 33.9843 10.9925 33.9843 12.2079C33.9847 12.4965 33.9281 12.7824 33.8178 13.0491C33.7075 13.3158 33.5457 13.5581 33.3417 13.7622C33.1376 13.9663 32.8953 14.1281 32.6286 14.2383C32.3618 14.3486 32.076 14.4052 31.7874 14.4048Z" fill="white"/>
</svg>
