<svg width="244" height="305" viewBox="0 0 244 305" fill="none" xmlns="http://www.w3.org/2000/svg">
<path d="M135.48 201.32C159.825 201.32 179.56 181.585 179.56 157.24C179.56 132.895 159.825 113.16 135.48 113.16C111.136 113.16 91.4004 132.895 91.4004 157.24C91.4004 181.585 111.136 201.32 135.48 201.32Z" fill="#319FA9" stroke="#319FA9" stroke-width="1.73"/>
<path d="M84.7199 230.28C43.9599 202.79 33.1999 147.46 60.6999 106.69L134.58 156.52M184.05 82.51C224.81 110 235.57 165.33 208.07 206.1C180.58 246.86 125.25 257.62 84.4799 230.12" stroke="#319FA9" stroke-width="15.56" stroke-miterlimit="10"/>
<path d="M230.29 5.83992L230.26 5.88992C210.21 -6.23008 182.89 0.909922 168.36 22.4499C153.83 43.9899 157.44 71.9999 176.19 86.0499L109.1 185.08L122.1 194.08L243.18 14.5399L230.28 5.83992H230.29Z" fill="#319FA9"/>
<path d="M132.35 178.86L119.45 170.16L59.45 259.11C57.13 254.21 53.55 249.85 48.76 246.59C34.44 236.87 15.01 240.68 5.34999 255.09C-4.31001 269.5 -0.530013 289.06 13.78 298.78C27.49 308.09 45.88 304.96 55.9 292.02L55.98 292.08L132.34 178.87L132.35 178.86Z" fill="#319FA9"/>
</svg>
