<svg width="44" height="44" viewBox="0 0 44 44" fill="none" xmlns="http://www.w3.org/2000/svg">
<path fill-rule="evenodd" clip-rule="evenodd" d="M3.66663 6.72996C3.66663 5.91752 3.98937 5.13835 4.56386 4.56386C5.13834 3.98937 5.91751 3.66663 6.72996 3.66663H37.2666C37.6692 3.66597 38.068 3.74473 38.4402 3.89841C38.8123 4.05208 39.1505 4.27765 39.4354 4.56219C39.7202 4.84673 39.9462 5.18467 40.1002 5.55665C40.2543 5.92862 40.3335 6.32734 40.3333 6.72996V37.2666C40.3337 37.6693 40.2548 38.0682 40.1009 38.4403C39.947 38.8125 39.7213 39.1506 39.4366 39.4355C39.152 39.7203 38.8139 39.9462 38.4419 40.1003C38.0698 40.2543 37.671 40.3335 37.2683 40.3333H6.72996C6.32754 40.3333 5.92906 40.254 5.55729 40.0999C5.18552 39.9459 4.84774 39.7201 4.56327 39.4355C4.27879 39.1508 4.05318 38.8129 3.89933 38.4411C3.74548 38.0692 3.66641 37.6707 3.66663 37.2683V6.72996ZM18.18 17.6466H23.145V20.14C23.8616 18.7066 25.695 17.4166 28.45 17.4166C33.7316 17.4166 34.9833 20.2716 34.9833 25.51V35.2133H29.6383V26.7033C29.6383 23.72 28.9216 22.0366 27.1016 22.0366C24.5766 22.0366 23.5266 23.8516 23.5266 26.7033V35.2133H18.18V17.6466ZM9.01329 34.985H14.36V17.4166H9.01329V34.9833V34.985ZM15.125 11.6866C15.135 12.1444 15.0536 12.5996 14.8854 13.0255C14.7171 13.4514 14.4655 13.8394 14.1453 14.1667C13.8251 14.494 13.4428 14.7541 13.0207 14.9316C12.5986 15.1092 12.1454 15.2007 11.6875 15.2007C11.2296 15.2007 10.7763 15.1092 10.3542 14.9316C9.93213 14.7541 9.54977 14.494 9.22957 14.1667C8.90937 13.8394 8.65778 13.4514 8.48956 13.0255C8.32134 12.5996 8.23988 12.1444 8.24996 11.6866C8.26975 10.7881 8.6406 9.93295 9.2831 9.30444C9.9256 8.67593 10.7887 8.32399 11.6875 8.32399C12.5863 8.32399 13.4493 8.67593 14.0918 9.30444C14.7343 9.93295 15.1052 10.7881 15.125 11.6866Z" fill="white"/>
</svg>
