<svg width="44" height="44" viewBox="0 0 44 44" fill="none" xmlns="http://www.w3.org/2000/svg">
<g clip-path="url(#clip0_493_46)">
<path d="M24.8187 22C24.8187 28.8338 19.2638 34.375 12.408 34.375C10.7807 34.3772 9.16896 34.0588 7.66472 33.4381C6.16048 32.8174 4.79324 31.9064 3.64105 30.7573C2.48886 29.6082 1.57429 28.2434 0.949558 26.7408C0.324826 25.2382 0.00216537 23.6273 0 22C0 15.1635 5.555 9.62501 12.408 9.62501C14.0355 9.62249 15.6476 9.94059 17.1521 10.5612C18.6567 11.1817 20.0242 12.0926 21.1767 13.2418C22.3292 14.3909 23.244 15.7559 23.8689 17.2586C24.4938 18.7614 24.8166 20.3725 24.8187 22ZM38.4313 22C38.4313 28.435 35.6538 33.649 32.2272 33.649C28.8007 33.649 26.0233 28.4323 26.0233 22C26.0233 15.565 28.8007 10.351 32.2272 10.351C35.6538 10.351 38.4313 15.5678 38.4313 22ZM44 22C44 27.764 43.0238 32.4363 41.8165 32.4363C40.612 32.4363 39.6357 27.7613 39.6357 22C39.6357 16.236 40.612 11.5638 41.8192 11.5638C43.0238 11.5638 44 16.236 44 22Z" fill="white"/>
</g>
<defs>
<clipPath id="clip0_493_46">
<rect width="44" height="44" fill="white"/>
</clipPath>
</defs>
</svg>
